# xmcd
#
# Track frame offsets: 
#        150
#        10465
#        28077
#        30059
#        52286
#        57289
#        82219
#        83748
#        89609
#        110551
#        130584
#        147908
#        164166
#        168472
#        188759
#        197799
#        219759
#
# Disc length: 3400 seconds
#
# Revision: 0
# Processed by: cddbd v1.5.2PL0 Copyright (c) Steve Scherf et al.
# Submitted via: ExactAudioCopyFreeDBPlugin 1.0
#
DISCID=ee0d4611
DTITLE=Insane Clown Posse - Riddle Box Oddities
DYEAR=2015
DGENRE=The Wicked Shit
TTITLE0=The Riddle Box Show Intro
TTITLE1=I Didn't Mean to Kill ’Em
TTITLE2=Riddlebox Sampler Part Two
TTITLE3=Lil’ Somethin’ Somethin’ (Instrumental)
TTITLE4=Ink Town Posse
TTITLE5=Ol’ Evil Eye (Instrumental)
TTITLE6=Riddlebox Sampler Ending
TTITLE7=Mike E. Clark Calls Violent J
TTITLE8=3 Rings (Early Mix)
TTITLE9=Toy Box (Show Version)
TTITLE10=Joker's Gallery EP Intro
TTITLE11=Willy Bubba (Alternate Version)
TTITLE12=Hotline Message
TTITLE13=The Killing Fields (Instrumental)
TTITLE14=Fabulous
TTITLE15=Fat Sweaty Betty (Celluloid Bubble Remix)
TTITLE16=Riddlebox Sampler Part 4 and 12 (Instrumental)
EXTD=
EXTT0=
EXTT1=
EXTT2=
EXTT3=
EXTT4=
EXTT5=
EXTT6=
EXTT7=
EXTT8=
EXTT9=
EXTT10=
EXTT11=
EXTT12=
EXTT13=
EXTT14=
EXTT15=
EXTT16=
PLAYORDER=
